<svg xmlns="http://www.w3.org/2000/svg" width="103" height="33" viewBox="0 0 103 33">
    <g fill="#4A4A4A" fill-rule="evenodd">
        <path d="M9.006 23.262V8.929h3.03v14.333h-3.03zM28.43 23.25h-3.042l-5.26-9.104v9.103h-3.03V8.93h3.03l5.26 9.065V8.93h3.03l.012 14.32zM40.464 11.058L38 12.453c-.184-.635-.936-1.084-1.6-1.084-.604 0-1.159.386-1.159 1.208 0 2.167 5.765 2.192 5.765 6.725 0 2.478-1.725 4.11-4.286 4.11-2.082 0-4.311-1.346-5.063-3.276l2.464-1.345c.468.997 1.478 2.005 2.525 2.005.788 0 1.318-.822 1.318-1.556 0-1.98-5.765-2.429-5.765-6.588 0-2.354 1.663-3.91 4.163-3.91 1.737 0 3.104.672 4.102 2.316zM47.682 11.544v3.25h4.495v2.615h-4.495v3.213h6.232v2.615h-9.262V8.917h9.04v2.614h-6.01zM68.67 23.25h-3.03l-5.272-9.104v9.103h-3.03V8.93h3.03l5.26 9.065V8.93h3.03v14.32h.012zM80.704 11.058l-2.464 1.395c-.184-.635-.936-1.084-1.6-1.084-.604 0-1.159.386-1.159 1.208 0 2.167 5.765 2.192 5.765 6.725 0 2.478-1.725 4.11-4.287 4.11-2.081 0-4.31-1.346-5.062-3.276l2.463-1.345c.469.997 1.479 2.005 2.525 2.005.789 0 1.318-.822 1.318-1.556 0-1.98-5.764-2.429-5.764-6.588 0-2.354 1.663-3.91 4.163-3.91 1.737 0 3.104.672 4.102 2.316zM87.922 11.544v3.25h4.495v2.615h-4.495v3.213h6.232v2.615h-9.262V8.917h9.04v2.614h-6.01z"/>
        <path d="M-.097 33H103V0H-.097v33zm4.083-4V4h94.931v25H3.987z"/>
    </g>
</svg>
